<svg width="512" height="513" viewBox="0 0 512 513" fill="none" xmlns="http://www.w3.org/2000/svg">
<path d="M512 256.5C512 282.181 397.385 303 256 303C114.615 303 0 282.181 0 256.5C0 230.819 114.615 210 256 210C397.385 210 512 230.819 512 256.5Z" fill="#D9D9D9"/>
<path d="M256 0.5C281.681 0.5 302.5 115.115 302.5 256.5C302.5 397.885 281.681 512.5 256 512.5C230.319 512.5 209.5 397.885 209.5 256.5C209.5 115.115 230.319 0.5 256 0.5Z" fill="#D9D9D9"/>
<path d="M437.019 75.4807C455.179 93.6401 388.855 189.406 288.88 289.38C188.906 389.355 93.1401 455.679 74.9807 437.519C56.8213 419.36 123.145 323.594 223.12 223.62C323.094 123.645 418.86 57.3213 437.019 75.4807Z" fill="#D9D9D9"/>
<path d="M437.019 437.519C418.86 455.679 323.094 389.355 223.12 289.38C123.145 189.406 56.8213 93.6401 74.9807 75.4807C93.1401 57.3213 188.906 123.645 288.88 223.62C388.855 323.594 455.179 419.36 437.019 437.519Z" fill="#D9D9D9"/>
</svg>
